<svg id="Capa_1" data-name="Capa 1" xmlns="http://www.w3.org/2000/svg" viewBox="0 0 156 156"><path d="M120.75,110.72h-4.33l-15.49-24a10.54,10.54,0,0,1-1-1.89h-.12A31.11,31.11,0,0,1,100,89v21.76H96.48V80.61h4.58l15.07,23.62c.63,1,1,1.65,1.22,2h.08a31.73,31.73,0,0,1-.21-4.43V80.61h3.53Z" fill="#fff"/><path d="M101.77,82.6H96.3V51.13c0-2.49.16-5.53.46-9.13h-.13a28.18,28.18,0,0,1-1.41,4.55l-16,36.05H76.51l-16-35.79A28.72,28.72,0,0,1,59.11,42H59c.17,1.88.26,4.94.26,9.2V82.6h-5.3V35.69H61.2L75.6,68.4A41.13,41.13,0,0,1,77.75,74H78q1.41-3.86,2.26-5.76L94.9,35.69h6.87Z" fill="#fff"/><path d="M35.31,52.87V47.45a10.67,10.67,0,0,0,2.23,1.48A17.84,17.84,0,0,0,40.28,50a22.78,22.78,0,0,0,2.88.7,16.52,16.52,0,0,0,2.68.24q4.24,0,6.33-1.57a5.31,5.31,0,0,0,2.09-4.53,5.39,5.39,0,0,0-.69-2.76A7.88,7.88,0,0,0,51.64,40a18.74,18.74,0,0,0-2.91-1.86c-1.12-.6-2.33-1.22-3.63-1.88s-2.64-1.39-3.82-2.1a16.5,16.5,0,0,1-3.09-2.35,9.72,9.72,0,0,1-2.07-2.92,9,9,0,0,1-.75-3.81,8.89,8.89,0,0,1,1.18-4.66,10.06,10.06,0,0,1,3.09-3.27A13.79,13.79,0,0,1,44,15.22a19.9,19.9,0,0,1,5-.63q5.79,0,8.45,1.39v5.17a15.37,15.37,0,0,0-8.92-2.41,14.74,14.74,0,0,0-3,.32,8.68,8.68,0,0,0-2.68,1,6,6,0,0,0-1.91,1.84,4.84,4.84,0,0,0-.74,2.73,5.7,5.7,0,0,0,.56,2.6,6.42,6.42,0,0,0,1.66,2A15.52,15.52,0,0,0,45.06,31q1.57.86,3.63,1.86c1.4.7,2.73,1.42,4,2.19A18.43,18.43,0,0,1,56,37.58a11.33,11.33,0,0,1,2.25,3.09,8.66,8.66,0,0,1,.84,3.89,9.78,9.78,0,0,1-1.14,4.9,9.31,9.31,0,0,1-3.06,3.27,13.35,13.35,0,0,1-4.44,1.82,24.63,24.63,0,0,1-5.31.56,21.86,21.86,0,0,1-2.3-.15c-.91-.1-1.84-.25-2.78-.44a23.11,23.11,0,0,1-2.7-.71A8.31,8.31,0,0,1,35.31,52.87Z" fill="#fff"/><path d="M20.12,135.48v-16.8h4.64q8.88,0,8.88,8.19a8.23,8.23,0,0,1-2.47,6.25,9.11,9.11,0,0,1-6.6,2.36Zm2-15V133.7h2.5a7.12,7.12,0,0,0,5.15-1.77,6.65,6.65,0,0,0,1.84-5q0-6.47-6.87-6.46Z" fill="#fff"/><path d="M46.33,130H37.86a4.49,4.49,0,0,0,1.08,3.1,3.72,3.72,0,0,0,2.83,1.09,5.91,5.91,0,0,0,3.73-1.34v1.81a7,7,0,0,1-4.18,1.14,5.07,5.07,0,0,1-4-1.63,6.68,6.68,0,0,1-1.45-4.6A6.57,6.57,0,0,1,37.45,125a5.1,5.1,0,0,1,3.95-1.77A4.49,4.49,0,0,1,45,124.73,6.33,6.33,0,0,1,46.33,129Zm-2-1.63a3.88,3.88,0,0,0-.8-2.58,2.74,2.74,0,0,0-2.2-.93,3.12,3.12,0,0,0-2.31,1,4.46,4.46,0,0,0-1.17,2.54Z" fill="#fff"/><path d="M58.67,123.48l-4.78,12H52l-4.54-12h2.11l3,8.72a7.33,7.33,0,0,1,.42,1.68h0a7.5,7.5,0,0,1,.38-1.63l3.18-8.77Z" fill="#fff"/><path d="M70.38,130H61.91a4.53,4.53,0,0,0,1.07,3.1,3.76,3.76,0,0,0,2.84,1.09,5.93,5.93,0,0,0,3.73-1.34v1.81a7,7,0,0,1-4.19,1.14,5.06,5.06,0,0,1-4-1.63,6.68,6.68,0,0,1-1.46-4.6A6.53,6.53,0,0,1,61.5,125a5.08,5.08,0,0,1,3.94-1.77,4.5,4.5,0,0,1,3.65,1.53A6.33,6.33,0,0,1,70.38,129Zm-2-1.63a3.94,3.94,0,0,0-.8-2.58,2.74,2.74,0,0,0-2.2-.93,3.09,3.09,0,0,0-2.31,1,4.46,4.46,0,0,0-1.17,2.54Z" fill="#fff"/><path d="M75.21,135.48H73.28V117.72h1.93Z" fill="#fff"/><path d="M84.11,135.76a5.58,5.58,0,0,1-4.25-1.68,6.25,6.25,0,0,1-1.58-4.46,6.49,6.49,0,0,1,1.65-4.72,6,6,0,0,1,4.46-1.7,5.38,5.38,0,0,1,4.19,1.65,6.55,6.55,0,0,1,1.51,4.59,6.47,6.47,0,0,1-1.62,4.6A5.72,5.72,0,0,1,84.11,135.76Zm.14-10.94a3.66,3.66,0,0,0-2.93,1.26,5.16,5.16,0,0,0-1.07,3.47,4.88,4.88,0,0,0,1.09,3.37,3.68,3.68,0,0,0,2.91,1.23,3.5,3.5,0,0,0,2.87-1.21,5.22,5.22,0,0,0,1-3.43,5.32,5.32,0,0,0-1-3.47A3.51,3.51,0,0,0,84.25,124.82Z" fill="#fff"/><path d="M95.13,133.75h0V141H93.16V123.48h1.92v2.11h0a4.55,4.55,0,0,1,4.15-2.39,4.42,4.42,0,0,1,3.62,1.61,6.68,6.68,0,0,1,1.3,4.32,7.4,7.4,0,0,1-1.47,4.82,4.85,4.85,0,0,1-4,1.81A4,4,0,0,1,95.13,133.75Zm0-4.84v1.67a3.54,3.54,0,0,0,1,2.53,3.44,3.44,0,0,0,5.19-.3,6.13,6.13,0,0,0,1-3.71,4.8,4.8,0,0,0-.93-3.14,3,3,0,0,0-2.5-1.14A3.41,3.41,0,0,0,96.1,126,4.26,4.26,0,0,0,95.08,128.91Z" fill="#fff"/><path d="M116.91,130h-8.47a4.49,4.49,0,0,0,1.08,3.1,3.74,3.74,0,0,0,2.83,1.09,5.89,5.89,0,0,0,3.73-1.34v1.81a7,7,0,0,1-4.18,1.14,5.07,5.07,0,0,1-4-1.63,6.68,6.68,0,0,1-1.45-4.6A6.53,6.53,0,0,1,108,125,5.08,5.08,0,0,1,112,123.2a4.48,4.48,0,0,1,3.64,1.53,6.33,6.33,0,0,1,1.29,4.23Zm-2-1.63a3.83,3.83,0,0,0-.8-2.58,2.74,2.74,0,0,0-2.2-.93,3.08,3.08,0,0,0-2.3,1,4.4,4.4,0,0,0-1.18,2.54Z" fill="#fff"/><path d="M126.08,125.43a2.35,2.35,0,0,0-1.46-.39,2.45,2.45,0,0,0-2.05,1.16,5.39,5.39,0,0,0-.83,3.17v6.11h-1.92v-12h1.92V126h.05a4.15,4.15,0,0,1,1.25-2,2.87,2.87,0,0,1,1.89-.71,3.13,3.13,0,0,1,1.15.17Z" fill="#fff"/><path d="M127.44,135.05V133a5.69,5.69,0,0,0,3.45,1.16c1.69,0,2.54-.57,2.54-1.69a1.48,1.48,0,0,0-.22-.81,2.24,2.24,0,0,0-.59-.6,4.6,4.6,0,0,0-.86-.46l-1.08-.43a13.37,13.37,0,0,1-1.4-.64,4.14,4.14,0,0,1-1-.72,2.76,2.76,0,0,1-.6-.92,3.23,3.23,0,0,1-.21-1.21,2.83,2.83,0,0,1,.39-1.49,3.25,3.25,0,0,1,1-1.09,4.7,4.7,0,0,1,1.47-.67,7.16,7.16,0,0,1,4.49.32v2a5.41,5.41,0,0,0-3-.87,3.7,3.7,0,0,0-1,.12,2.31,2.31,0,0,0-.74.35,1.51,1.51,0,0,0-.48.53,1.47,1.47,0,0,0-.17.69,1.67,1.67,0,0,0,.17.78,1.65,1.65,0,0,0,.5.56,3.48,3.48,0,0,0,.79.45c.32.13.67.28,1.07.43s1,.42,1.43.63a5.23,5.23,0,0,1,1.08.73,2.79,2.79,0,0,1,.68.93,3.32,3.32,0,0,1-.15,2.8,3.31,3.31,0,0,1-1.05,1.09,4.68,4.68,0,0,1-1.51.64,7.5,7.5,0,0,1-1.79.21A6.73,6.73,0,0,1,127.44,135.05Z" fill="#fff"/><rect x="1.5" y="1.5" width="153" height="153" fill="none" stroke="#fff" stroke-miterlimit="10" stroke-width="3"/></svg>